PathFileType	3	(X/Y/Z)	results
DataRate	CameraRate	NumFrames	NumMarkers	Units	OrigDataRate	OrigDataStartFrame	OrigNumFrames
30.0	30.0	4	85	mm	30.0	157	179
Frame#	Time	head			nose			neck			shoulder_r			elbow_r			wrist_r			shoulder_l			elbow_l			wrist_l			hip_r			knee_r			ankle_r			hip_l			knee_l			ankle_l			heel_r			heel_l			mtoe_r			ltoe_r			mtoe_l			ltoe_l			asis_l			asis_r			psi_r			psi_l			mhnd_r			lhnd_r			mhnd_l			lhnd_l			l_lat_knee			r_med_wrist			l_lat_ankle			r_med_ankle			r_lat_knee			xiphoid			l_med_ankle			r_med_knee			l_med_elbow			navel			r_lat_elbow			r_lat_wrist			l_med_wrist			l_lat_elbow			l_med_knee			r_med_elbow			r_lat_ankle			l_lat_wrist			chin			T10			r_eye			l_eye			l_ear			r_ear			spinal_cord_8			spinal_cord_12			spinal_cord_27			spinal_cord_33			up_arm_r_0			up_arm_r_5			up_arm_l_0			up_arm_l_5			front_torso_11			front_torso_7			front_torso_4			front_torso_1			front_torso_10			thigh_r_2			thigh_r_3			thigh_l_1			thigh_l_5			shank_l_0			shank_l_4			shank_r_1			shank_r_2			foot_r_1			foot_r_3			foot_r_5			foot_r_6			foot_r_7			foot_l_1			foot_l_7			foot_l_0			foot_l_4			foot_l_5			foot_l_6			
		X1	Y1	Z1	X2	Y2	Z2	X3	Y3	Z3	X4	Y4	Z4	X5	Y5	Z5	X6	Y6	Z6	X7	Y7	Z7	X8	Y8	Z8	X9	Y9	Z9	X10	Y10	Z10	X11	Y11	Z11	X12	Y12	Z12	X13	Y13	Z13	X14	Y14	Z14	X15	Y15	Z15	X16	Y16	Z16	X17	Y17	Z17	X18	Y18	Z18	X19	Y19	Z19	X20	Y20	Z20	X21	Y21	Z21	X22	Y22	Z22	X23	Y23	Z23	X24	Y24	Z24	X25	Y25	Z25	X26	Y26	Z26	X27	Y27	Z27	X28	Y28	Z28	X29	Y29	Z29	X30	Y30	Z30	X31	Y31	Z31	X32	Y32	Z32	X33	Y33	Z33	X34	Y34	Z34	X35	Y35	Z35	X36	Y36	Z36	X37	Y37	Z37	X38	Y38	Z38	X39	Y39	Z39	X40	Y40	Z40	X41	Y41	Z41	X42	Y42	Z42	X43	Y43	Z43	X44	Y44	Z44	X45	Y45	Z45	X46	Y46	Z46	X47	Y47	Z47	X48	Y48	Z48	X49	Y49	Z49	X50	Y50	Z50	X51	Y51	Z51	X52	Y52	Z52	X53	Y53	Z53	X54	Y54	Z54	X55	Y55	Z55	X56	Y56	Z56	X57	Y57	Z57	X58	Y58	Z58	X59	Y59	Z59	X60	Y60	Z60	X61	Y61	Z61	X62	Y62	Z62	X63	Y63	Z63	X64	Y64	Z64	X65	Y65	Z65	X66	Y66	Z66	X67	Y67	Z67	X68	Y68	Z68	X69	Y69	Z69	X70	Y70	Z70	X71	Y71	Z71	X72	Y72	Z72	X73	Y73	Z73	X74	Y74	Z74	X75	Y75	Z75	X76	Y76	Z76	X77	Y77	Z77	X78	Y78	Z78	X79	Y79	Z79	X80	Y80	Z80	X81	Y81	Z81	X82	Y82	Z82	X83	Y83	Z83	X84	Y84	Z84	X85	Y85	Z85	
157	5.233333333333333	2853.314176891727	1336.2252857509782	-1855.3146430142383	2902.497721032004	1440.4476490729762	-1665.2363813691459	3329.0430107808797	1344.1305392279996	-1535.2159722341269	3586.6696570619065	1459.8433832415428	-1354.5815936750553	3500.077832362419	1248.1809901544907	-1251.0182455940171	3696.1530024770823	1205.101498323525	-1308.6818026981462	3450.8926143401372	1432.95548555508	-1613.2738079827081	3562.3060419130156	1231.4173102440075	-1689.8663175261584	3362.978321391152	1269.5115831883343	-1738.4659613565307	3591.220593260746	1156.3455459121792	-1324.98901260538	3464.570605956392	828.9576371831284	-1172.5990236906348	3355.126388291598	627.7402793789062	-1469.5843588225089	3660.230244496403	1012.8304123490257	-1357.0349990903153	3920.4359356017767	751.7259416747218	-1247.537042214528	4214.479032593578	545.2829411640668	-1128.5951469329325	3341.1824880341096	613.2584941652623	-1524.884454142884	4270.526644385608	501.89452241638566	-1097.78339044797	3402.3451359289616	438.65610688070643	-1450.4293262149347	3332.2095823948393	464.2756068066433	-1476.2376987992477	4100.191073281463	460.68796957708173	-1213.368818038079	4110.665421594088	446.53801294093057	-1124.2861147555732	3700.3386577338983	1004.7898107198674	-1417.5908630636418	3597.104497365047	1213.2873217790252	-1368.0443823671255	3525.032747903679	1093.5131358055742	-1392.2962299879478	3563.9197895724747	1024.081346628701	-1408.3072788714721	3753.384789818733	1161.4011336290525	-1322.6992353344378	3780.1922359348264	1207.0706994820043	-1330.7424835764164	3296.395392862757	1259.3418267790523	-1774.2137792467001	3280.768896704288	1301.1304109710104	-1744.7982361997251	3894.2238016755186	733.6839525108387	-1209.6187140490335	3686.3823057802797	1183.8215111324494	-1296.7547789115326	4209.57769255663	542.2003999603955	-1075.2678183429562	3385.1239457768775	608.1951714494083	-1478.93477417985	3425.2409984221254	842.134645990736	-1169.5677383174097	3507.650563850618	1293.5501048109575	-1537.342633329348	4226.681307935234	527.0820183445669	-1154.8621237824598	3500.4212478403365	812.1075377526395	-1181.4745186798737	3577.43222390657	1255.9013516430268	-1706.7590265000204	3669.113957634244	1166.5294111956268	-1494.8095611718552	3518.1907382369923	1263.0689964653473	-1220.6279551632558	3690.636062921724	1230.1676762271275	-1322.1362288313762	3368.3946336073295	1241.6053463456913	-1744.3602819890175	3545.997344642101	1222.4773569575466	-1657.957277116287	3936.451444664724	747.6289026317924	-1293.417454172181	3486.7319199047583	1244.5653018114072	-1283.5871818347334	3306.705239925837	620.9076295544685	-1469.344347433787	3369.291657418977	1289.4111371817798	-1719.8914336172854	2965.425861531274	1430.6224400780586	-1614.0572645909272	3375.4482044689057	1192.8885092314947	-1451.2271475504024	2863.559711474632	1414.013442498338	-1672.9251534307493	2900.7141078790837	1464.2890807159379	-1708.9680745101384	2991.519780458736	1426.6494783164558	-1777.5248058593895	2902.988261204225	1300.2312019872377	-1686.8143439861758	3256.7352582092717	1353.355674083829	-1527.0468150822244	3305.418689735041	1252.934621318339	-1476.7048001287087	3492.956208994596	1114.8444357031728	-1413.1290072399456	3390.4171990206296	1194.106158375651	-1454.9621754852462	3585.0798262881044	1338.813978334743	-1302.6943571319275	3505.2082714049175	1352.9060440503442	-1277.9332031368797	3466.4414689152527	1379.764381866695	-1605.7797191685838	3560.205545049965	1308.9162816218732	-1682.5547063903962	3632.112574234738	1185.3314775700808	-1444.420054116257	3587.815736774532	1257.7718502770192	-1529.9411186526477	3469.796332150551	1292.9114131025683	-1602.814800436867	3593.1418565046656	1150.879531465814	-1549.3018713310043	3468.5846181057327	1392.8403200421928	-1499.374188534079	3538.460156570217	973.5612039573103	-1247.9062821637494	3443.291341185741	981.964890676148	-1221.7403655641942	3871.9645779908524	837.2088583760795	-1315.7860691487847	3665.7477901004027	904.0971494740286	-1260.704425741512	4115.213981586285	589.5660649985946	-1097.4524621612943	4048.360126179098	666.4672857491433	-1246.428325398359	3363.6319476759745	750.5510051137851	-1285.322599326564	3444.7252690706287	715.2596072065724	-1335.4505653917404	3379.121109058031	443.44171311903045	-1463.028658843807	3354.3522509785475	449.9831366501214	-1467.840376340595	3390.007652459443	509.1108956054439	-1471.237804223421	3354.827961873149	511.0739527220053	-1470.9947804711765	3327.40342163205	506.90229761263294	-1486.5419530948448	4100.943956783217	446.4174191400853	-1162.4978915244917	4166.832034343294	490.0275310713974	-1096.6940508995121	4100.3270367850555	445.4966575943773	-1146.9333484407523	4102.2088263354735	447.64044292584845	-1181.3121755059717	4140.5167968679725	471.4633932696975	-1147.36012812491	4174.438324894097	492.5429841933906	-1156.959394450348	
158	5.266666666666667	2510.0121083810045	1348.2889545382907	-1993.2624959799434	2567.7803046575254	1460.0730467223157	-1810.0188881400193	2988.5619451684483	1348.7153282858078	-1679.0241733033872	3108.534901434512	1488.9280386759176	-1568.6177704786037	3067.4540624973065	1271.0850577584567	-1450.7989258267871	3266.8232579694854	1232.3726236498253	-1499.5808088569713	3062.841420619088	1486.178811374838	-1790.3771319459643	3134.555174553589	1259.2145095484134	-1837.7199631084825	2938.0172550808325	1298.2324122114733	-1895.9873524539319	3193.259369122771	1117.3112345534962	-1445.7887040291212	2867.982200913115	940.9677273086056	-1339.202316350577	2910.3561642661844	673.6647960682269	-1598.8565890391212	3307.1356764423012	1010.1140310894627	-1489.6842274440203	3594.9290844326765	780.0516948291953	-1379.7103802797942	3906.49690852685	607.657722642502	-1251.5189642471046	2920.0189172172986	669.0995906418327	-1619.1917176272823	3965.4244467162484	564.9759274124563	-1224.273228084367	2948.9257528813896	514.562584267421	-1741.882946859315	2893.0310539805237	570.2684719562535	-1738.1328197915716	3795.152187888427	540.5561885922323	-1344.6194456447256	3803.4422629453684	519.8212574072038	-1256.6024100561503	3361.602925621608	1031.2601456189152	-1533.5762467150812	3192.671693684664	1185.384715920546	-1468.0688926245693	3167.448537713736	1068.8988226097126	-1545.0310513228028	3227.7429937188062	1018.3193042888594	-1564.921248553754	3326.6601297922753	1190.599535811674	-1507.0805206775644	3351.095758281995	1236.3514836950849	-1520.4484517041847	2870.9735383684024	1284.8396396854052	-1929.7570207110919	2857.92591856694	1332.7180253897486	-1909.9285784230538	3566.3377726100125	744.9771451160085	-1359.5919641250002	3257.972000890738	1212.2387404786894	-1485.1988666454104	3892.123445593653	583.5455615200043	-1205.8097045912739	2928.644195699797	646.7015060555276	-1581.3116791109562	2846.2803540349246	963.0914927883047	-1366.6981080516093	3164.9321022151985	1290.824102113154	-1681.418892978215	3928.5130513597137	603.7160148994909	-1277.4009190156337	2892.2736066021544	916.5365368728657	-1317.5786073586535	3152.7282507336918	1277.915615488551	-1858.5440169927424	3322.030367494077	1159.927486021256	-1634.5151904819502	3083.547007855	1290.8062398733587	-1422.06929079074	3260.2398950622055	1255.190341942762	-1516.1875106385505	2941.705482644644	1269.4362904401814	-1895.853723004161	3118.6063051825595	1258.0660461235068	-1804.4273538856426	3622.438613417142	795.7512143729006	-1416.8156817983204	3053.826036283201	1263.185038627951	-1482.4815518009543	2875.6639711504454	676.8023152546763	-1633.177982197384	2945.5271944308897	1321.1588876203425	-1881.8862504417045	2630.074120751158	1448.7687192870442	-1758.371233300548	3030.588730549495	1200.7307583386373	-1587.2852356676879	2526.9502625165783	1436.1821792325659	-1816.0344671388823	2567.5399071628235	1481.2432587615988	-1855.1389552377038	2654.945559373627	1432.8109231114915	-1921.2978252386868	2557.7629877919394	1319.1460154833012	-1822.8923632995281	2916.859093232358	1361.3442754665296	-1670.1101371257996	2962.5079656005028	1262.0451767457407	-1614.9317694624706	3145.638073454592	1120.237435916637	-1546.8507135585744	3045.515876545702	1201.1196048650472	-1591.3513163098637	3131.7962564485642	1372.8981027708026	-1510.8346149154904	3051.6821016627305	1373.213017461896	-1483.035525461947	3069.532675567158	1432.7838338056342	-1775.1644650218261	3145.960357185497	1336.1052734591713	-1842.3777032743242	3286.833011701192	1183.0693248910454	-1584.642112236803	3243.7406210867775	1252.2728086285244	-1673.3979210386203	3125.767966312812	1288.0070358125713	-1746.0578135055034	3244.409856653606	1144.3227744193732	-1686.6461795840935	3130.629526288627	1393.632607738194	-1648.5548972727859	3029.7200564326	1012.0655290917773	-1380.109473197157	2951.8696718993624	1051.520043593101	-1426.9607216025038	3542.804193686351	873.7998695489599	-1432.6348473857483	3319.145427408646	876.9845443796543	-1432.5418545780474	3794.472064356702	615.7335207702105	-1238.4948329492092	3739.298004132712	728.4782483070653	-1368.1925316720403	2844.142492988278	849.0772282275436	-1480.731895226334	2916.3937344715487	783.5812178811306	-1452.0186011672743	2931.855512333134	534.9602200017092	-1745.5631612469435	2910.5440007877846	549.9538740998479	-1744.8930940253715	2945.434123704144	564.949462336226	-1687.1284534016484	2912.5568879978546	577.2490528101598	-1690.1830777682483	2892.5717198514026	597.9231016893565	-1703.762453581443	3794.3543681888973	522.8156153528117	-1294.8529694528486	3861.2610364148436	558.3864828936717	-1225.344428988272	3793.437088299356	520.8639194660057	-1279.3987507963316	3795.9871074196053	525.257843003322	-1313.5195880702663	3834.8809575393893	544.7072580186001	-1277.5089817272253	3869.9703534499777	564.6304031418794	-1285.1880255577298	
159	5.3	2190.4362120764154	1379.4964258188204	-2121.3016964639933	2259.843762385266	1498.9634527990434	-1947.1716042763644	2668.1607636829767	1364.9195185020253	-1810.6992292439672	2638.109272589173	1515.739692126024	-1771.3204269139712	2632.438829862947	1293.9569644149024	-1653.8268203382015	2834.84861979273	1259.7117110610307	-1692.3487664614124	2708.967307938839	1510.7931582391539	-1936.8691639458734	2706.729245394088	1275.8761842175684	-1997.7461453263986	2513.4921089037243	1322.9401875679587	-2060.904896498956	2825.3730372705472	1071.5992773895505	-1580.52956996732	2447.474076294267	1011.5037516358492	-1531.9424171558019	2458.5300900154625	744.2768748486201	-1794.8764621718526	2973.680392389283	1014.7281987610404	-1614.5366223009798	3284.7100850562415	818.3537991069522	-1503.413046101523	3601.895308909805	662.4886463630193	-1368.0364686199443	2470.178906976331	737.0619414317957	-1813.349042331721	3665.2860791044313	622.8044136015332	-1346.257547033407	2474.0060578368593	581.8070403712063	-1938.4557880759069	2437.0945762957244	651.6168182684204	-1940.8146398778736	3494.6450768799978	607.8550128827966	-1467.6261658335452	3505.1246696007156	575.0868708656432	-1383.5899339174862	3027.9558479182774	1061.5964663422233	-1628.603930842538	2809.3544607227514	1141.404198908091	-1579.3340914555233	2840.4365721249405	1061.6549575767972	-1692.4813656909798	2916.257649633786	1035.7944861305155	-1705.585917052117	2896.2851339934464	1219.7188885999844	-1695.1445935174406	2919.750219404612	1265.524609294125	-1709.9860211133132	2445.9126867913915	1311.3645183875537	-2094.276177426412	2435.9016600805953	1361.3605014924303	-2078.278416918139	3264.696405866828	773.1154384326617	-1508.0460317164595	2826.063463581415	1240.0713335060502	-1677.2611932622424	3586.470903964473	618.2342290604487	-1341.9411922223703	2464.452431144732	713.0512009046297	-1775.924466796554	2439.326016472643	1039.407036231944	-1561.42864392051	2841.0065145147987	1297.2329088901135	-1813.2350418194728	3628.634129430273	674.5133530620701	-1385.659325760163	2459.526240891403	981.0424700001	-1507.7537252682455	2728.9634573429817	1289.4011687600607	-2018.6350872226192	2992.0858322854433	1161.4256299478018	-1760.8406805384886	2646.207619482142	1315.757573785812	-1625.3934999714445	2828.2270141353097	1281.3725319589535	-1710.424569510594	2515.293683549155	1294.0605503842396	-2058.5472719756162	2692.381331807366	1277.674526393936	-1963.7610519405937	3314.09398360553	852.9542985619427	-1521.665871632275	2619.299808422513	1284.2179151421224	-1685.202594818266	2433.466569429968	757.6837047359892	-1834.668762512255	2522.4001529903244	1346.3440436736037	-2048.504500875762	2319.9005783257503	1484.7808289394545	-1893.6195769362487	2704.7448665804563	1221.7190937323055	-1709.5213755832044	2216.472822709798	1479.7075345631624	-1951.8858683648396	2262.5242715423797	1516.0319860234774	-1993.9213226484385	2343.9527400274205	1451.9415632917326	-2054.123129008169	2232.956460059231	1359.6707481724125	-1948.2282712706285	2597.5291784578126	1382.1404562651012	-1800.9592192450846	2639.310661925785	1284.6219737474903	-1739.8590063165555	2816.390371156177	1137.9993872814314	-1666.1996847640396	2719.5486690783637	1220.9823310563322	-1713.9720511908076	2679.60064217356	1404.2392536476466	-1714.8487685426496	2601.050536752617	1392.7443872900026	-1685.034085439591	2699.686964571966	1457.08033580542	-1924.3779794329566	2740.744163801787	1345.9011351323168	-1999.6046081869995	2959.632035546892	1189.9891303844279	-1711.9264697731858	2917.815628935113	1255.0035381341904	-1804.3828638698603	2799.912553880759	1292.0184783238908	-1876.5126173398232	2912.2750393413044	1146.5164023392556	-1809.7696393852257	2813.2607041279775	1403.8760005724648	-1787.0870254475403	2628.457361566452	1025.9826048066307	-1544.768382620569	2575.874231719591	1088.006188198129	-1601.341080297396	3220.2319504304205	913.8649531435002	-1534.4443796521691	3012.4207246987808	874.7957195007094	-1607.392881876568	3491.782991189856	644.576072655154	-1386.4437881508168	3432.819835080679	792.5932766930523	-1471.2453040182018	2425.2303252369497	931.1967186761835	-1680.599112895256	2468.344813956948	847.0843355220377	-1643.1735816974674	2464.580723318188	606.3920832947364	-1943.722605665521	2448.817136598819	627.0528922207451	-1945.7423793923242	2475.710068292827	630.5545123062799	-1882.1542442432294	2448.9537759330933	652.1186652592033	-1889.9395772558735	2438.630830397586	677.9066865698475	-1905.4198047325635	3495.369776641089	583.118181904143	-1420.939651602103	3561.533865105957	611.4690136465368	-1347.5109800537932	3494.76163688774	578.9207691839468	-1405.9231511439234	3496.624581244106	588.2970237652677	-1439.0691310840475	3535.081578375861	604.1962552974171	-1400.9109222808884	3569.100791709181	626.6706405539286	-1405.8868907944604	
160	5.333333333333333	1880.9635736043774	1430.3465425064196	-2254.7032378151544	1979.3304216868537	1547.3879071343677	-2093.345406443423	2356.577477068407	1381.0143133618287	-1955.6402459456726	2282.6313109784537	1518.4470020048188	-1928.3580936466547	2165.0812655299	1303.7925539551575	-1872.412275523967	2372.422543179018	1288.5443106435227	-1892.499247136192	2260.792422917662	1465.3000209119778	-1990.388864283982	2287.7860473787637	1327.5236840601913	-2188.343469462981	2086.653253578123	1356.0124615003633	-2236.0784461357675	2499.0562311405934	1085.4692730186318	-1707.8631572005115	2119.6175120124813	1048.573867278974	-1724.3496192076625	2016.1188241669925	808.3645541574474	-1993.1511419885228	2650.6766615010733	1034.192219548068	-1735.5719944151833	2971.845821793702	854.5384775538214	-1625.0965553990893	3297.523509174969	714.7985109169916	-1492.303425050123	2022.6123340025842	799.2887041395484	-2013.2620767014457	3363.0560972906187	678.4030899585748	-1471.127903112455	1963.5210842023762	658.6363855331077	-2141.6971913914117	1949.4373044022661	736.2318215806487	-2137.0044104911863	3193.0389608256187	655.4179229383906	-1592.115643221764	3205.589713931888	622.4246308340132	-1508.4521353938057	2703.925833268938	1083.0879563677352	-1746.2528827416693	2480.6194193471065	1154.6681366200544	-1706.329443125916	2519.7762978682063	1078.0027446971947	-1819.101342794436	2596.9768582751226	1054.9246511328208	-1828.9402510008908	2436.157286532177	1253.0671587700915	-1900.3057802411788	2458.292482422357	1301.6043937609916	-1895.487878510352	2023.2686208427197	1351.190040980635	-2278.1943504247547	2001.0535435693866	1377.6706376036652	-2237.438790461289	2954.397660689809	808.2724753812585	-1630.1152934223098	2363.141962325687	1264.7623798177706	-1886.2663625372575	3284.621994791733	669.5106101956497	-1466.6151759107508	2014.6747786391784	775.5821555376847	-1976.047807820538	2113.8530440233217	1078.6333774542825	-1752.6433224532436	2524.123688475967	1301.1137020953797	-1958.4188083457013	3323.505001995557	728.4360780943996	-1509.884721364786	2121.889093430152	1014.3450150468627	-1702.6643576857537	2306.3197164480125	1354.5291519510697	-2194.7341733548014	2668.9217870858492	1162.39280709095	-1896.7440947757668	2175.4615602724493	1314.6399604279525	-1837.0868866730139	2366.673242492228	1314.9679827016096	-1902.9158961130283	2096.104223427527	1332.8629055787242	-2250.8302168090095	2275.7817801504575	1304.8492249113112	-2161.7756373735083	2999.3393669316533	890.8047003445673	-1643.097558063117	2160.269046871878	1304.0563162809244	-1907.4650239240084	1991.4612867899789	831.2301256825198	-2028.6549700565226	2089.5484013219657	1368.6660132634288	-2211.332349696227	2034.7173657549672	1524.8746567491219	-2037.6567399431815	2389.8786826466553	1249.536481635585	-1838.6516747857463	1932.5249741065145	1538.8751570400086	-2096.637251514354	1985.5654517654389	1558.1460298195373	-2141.609713336335	2048.2462949237406	1470.055831290769	-2193.3171990502437	1919.3060351480494	1419.5527652974151	-2079.8639129847343	2287.9652072113154	1404.4443403537684	-1944.5209121593232	2326.959918117703	1312.6863387317273	-1873.466957498866	2498.2584100914005	1164.068694690967	-1790.6978541933147	2404.298642693239	1247.1613867600668	-1843.7435877454377	2263.6050620437286	1393.4380056295947	-1891.565670421228	2180.6346389886858	1410.0542126454156	-1885.999980416217	2260.186085931182	1415.4960806112385	-2015.8136876524898	2311.2381249650402	1386.590767369167	-2143.3430024058794	2641.498493759707	1199.2300488559333	-1850.3468632093325	2598.398081107945	1254.8550738708434	-1948.1828530477965	2478.941619630761	1290.9204154350882	-2018.2070430778274	2585.4321057871134	1147.2588720132878	-1939.0114329671171	2505.1018350893555	1411.953128689093	-1945.0364182791322	2296.769778283862	1050.6029267476395	-1708.09887809359	2257.495912429719	1121.0462611292862	-1765.6113173195	2902.2822336845074	946.5329673153873	-1655.6575153404465	2697.0636440611884	896.5632602942117	-1729.2900719138704	3188.4810817234275	691.1106915398876	-1510.5530401540973	3121.252774739656	836.5478991111863	-1593.651878635253	2055.560965656893	988.6344660903355	-1870.4552120034182	2075.614092708964	893.2148256430473	-1841.6908793110526	1961.3776487506195	685.2052535734819	-2144.9378038922023	1952.4699878547144	709.6901979262669	-2144.176059152689	1986.9700849495046	700.793790768179	-2084.9346944639083	1967.2204410113663	729.778115343166	-2088.308679760701	1963.302237682674	758.4463732957234	-2101.499637232318	3195.276866822752	630.2888225080364	-1545.6873469359637	3260.069348608367	661.4557158920237	-1472.1769046228221	3194.9524058795323	625.9137402777012	-1530.712809410955	3196.18236414911	635.710304522356	-1563.7666326315027	3233.857155706052	653.2926915293447	-1525.5665692932348	3266.5863921082105	677.6326545166481	-1530.4171792994473	
